<svg width="22" height="22" viewBox="0 0 22 22" fill="none" xmlns="http://www.w3.org/2000/svg">
<circle cx="11" cy="11" r="11" fill="#FFFDFB"/>
<path d="M22 11C22 4.9258 17.0742 0 11 0C4.9258 0 0 4.9258 0 11C0 17.0742 4.9258 22 11 22C11.0646 22 11.1289 21.9987 11.1934 21.9975V13.4344H8.83008V10.6803H11.1934V8.6535C11.1934 6.30298 12.6283 5.02365 14.725 5.02365C15.7291 5.02365 16.5921 5.09851 16.8438 5.13191V7.58852H15.3979C14.2572 7.58852 14.0363 8.13066 14.0363 8.92609V10.6803H16.7639L16.4084 13.4344H14.0363V21.575C18.6342 20.2569 22 16.021 22 11Z" fill="#1A212F"/>
</svg>
