<svg width="60" height="60" viewBox="12 2 40 30" fill="none" xmlns="http://www.w3.org/2000/svg">
    <path d="M39 6.99531L45.5759 0.418766C46.4704 -0.475816 48 0.157766 48 1.423V18.9964C47.9999 13.2963 43.4869 9.82971 39 6.99531Z" fill="#FF7236"/>
    <path d="M48 18.9966C48 27.834 40.8366 34.998 32.0001 34.998C23.1637 34.998 16.0002 27.8339 16.0002 18.9966C16.0002 10.1593 23.1636 3.99524 32.0001 3.99524C40.8367 3.99524 48 10.1592 48 18.9966Z" fill="#FFAA50"/>
    <path d="M25 18.9964C25 11.2947 29.4219 5.62687 35.3103 4.29649C34.2417 4.1004 33.1354 3.99505 32 3.99505C29.0556 3.99505 26.3064 4.6923 23.9366 5.93182L18.4241 0.418766C17.5296 -0.475816 16 0.157766 16 1.423V18.9964C16 18.6357 16 18.6377 16 18.9964C16 27.8338 23.1634 34.9978 31.9999 34.9978C33.1354 34.9978 34.2417 34.8756 35.3102 34.6508C29.4219 33.1252 25 26.6981 25 18.9964Z" fill="#FF7236"/>
    <path d="M28.4999 28.9973C30.4329 28.9973 31.9999 27.6541 31.9999 25.9971C31.9999 24.3401 30.4329 22.9968 28.4999 22.9968C26.567 22.9968 25 24.3401 25 25.9971C25 27.6541 26.567 28.9973 28.4999 28.9973Z" fill="#FFFDFB"/>
    <path d="M35.5002 28.9973C37.4331 28.9973 39.0001 27.6541 39.0001 25.9971C39.0001 24.3401 37.4331 22.9968 35.5002 22.9968C33.5672 22.9968 32.0002 24.3401 32.0002 25.9971C32.0002 27.6541 33.5672 28.9973 35.5002 28.9973Z" fill="#FFFDFB"/>
    <path d="M32.0003 25.9977C33.1048 25.9977 34.0003 25.1022 34.0003 23.9975C34.0003 22.8928 33.1048 21.9973 32.0003 21.9973C30.8957 21.9973 30.0002 22.8928 30.0002 23.9975C30.0002 25.1022 30.8957 25.9977 32.0003 25.9977Z" fill="#FF913C"/>
    <path d="M26.0002 19.9965C25.4474 19.9965 25.0002 19.5487 25.0002 18.9964V17.9964C25.0002 17.4441 25.4475 16.9963 26.0002 16.9963C26.5528 16.9963 27.0001 17.4441 27.0001 17.9964V18.9964C27.0001 19.5487 26.5528 19.9965 26.0002 19.9965Z" fill="#1A212F"/>
    <path d="M38 19.9965C37.4472 19.9965 37 19.5487 37 18.9964V17.9964C37 17.4441 37.4473 16.9963 38 16.9963C38.5527 16.9963 38.9999 17.4441 38.9999 17.9964V18.9964C39 19.5487 38.5527 19.9965 38 19.9965Z" fill="#1A212F"/>
</svg>
