<svg version="1.1" xmlns="http://www.w3.org/2000/svg" xmlns:xlink="http://www.w3.org/1999/xlink" x="0px" y="0px"
	 viewBox="0 0 34 34" style="enable-background:new 0 0 34 34;" xml:space="preserve">
<path fill="#FFFFFF" d="M17.5,34c-0.3,0-0.7,0-1,0C7.8,33.9,0.1,26.2,0,17.5c0-0.3,0-0.7,0-1C0,4.4,14.2-4,24.8,1.9
	C40.3,10,34.8,33.4,17.5,34z M20.4,25.5c3.1,0.1,3.4-3.8,1.2-5.3c-1.2-0.9-1-2.5-1.9-3.6c-1.6-2.2-5.1-1.3-5.6,1.3
	c-0.2,1-0.5,1.8-1.3,2.4c-2.1,1.5-1.7,5.1,1.2,5.2C16.1,25.2,18.3,25,20.4,25.5z M27.4,17.4c-0.2-5.6-7.2-2.6-5.6,1.9
	C23.1,22.9,27.5,20.2,27.4,17.4z M7.6,17.1c0,4.5,6.2,5.1,5.7,0.2C12.9,13.4,7.6,12.8,7.6,17.1z M23.6,11.5c-0.4-5.5-7-2.6-5.5,1.9
	C19.5,16.9,23.9,14.7,23.6,11.5z M17.2,12.2c0.2-3.1-4.1-5.4-5.5-2C10.2,14.7,16.7,17.8,17.2,12.2z"/>
</svg>
