<svg width="47" height="39" viewBox="0 0 47 39" fill="none" xmlns="http://www.w3.org/2000/svg">
<path d="M46.5772 4.79323C46.2458 4.52814 45.7814 4.4649 45.3651 4.59025C43.8165 5.05628 42.6513 5.98454 42.091 6.50006C41.0564 6.20515 39.9379 6.20506 38.9032 6.50006C38.3361 5.97831 37.1494 5.03391 35.5728 4.57354C35.1028 4.43649 34.5932 4.57252 34.273 4.92917C34.0014 5.23168 33.9327 5.64943 34.0645 6.02363C34.4577 7.13981 35.0943 8.89817 35.3174 9.51332C35.2183 9.82001 35.158 10.1417 35.1375 10.4728C35.118 10.7903 35.1238 11.0946 35.1518 11.386L34.7116 12.2518C34.4233 12.8192 33.8462 13.2129 33.1763 13.2985C30.74 13.6102 25.9977 14.2394 21.6087 14.9531C15.9279 15.8767 13.6774 16.4849 12.712 16.8586C11.8883 15.6977 10.7151 14.7523 9.34989 14.16C7.27648 13.2605 3.80762 11.3044 3.87089 8.30883C3.92824 5.59817 5.03351 3.99692 5.9506 3.13088C6.34218 2.76114 6.54768 2.25222 6.51424 1.73456C6.48081 1.21598 6.21075 0.732305 5.77313 0.407505C4.92671 -0.220646 3.71724 -0.111079 3.01956 0.65663C0.697413 3.21185 0.141275 6.75039 0.0163539 8.63224C-0.109468 10.5292 0.491213 12.2843 1.80188 13.8489C2.74179 14.9708 4.02473 15.9707 5.61497 16.8206C7.15687 17.6446 8.27124 18.9597 8.75301 20.5238C8.79535 20.6613 8.81537 20.8039 8.81237 20.9469L8.79705 21.6698C8.78955 22.0234 8.75932 22.3762 8.70636 22.7265L8.17795 26.2247C7.97065 27.5974 7.02113 28.7517 5.69225 29.3855C4.76885 29.8259 4.24114 30.7634 4.37918 31.718L5.34491 38.3962C5.39486 38.7419 5.71297 39 6.08903 39H10.0613C10.2218 39 10.3821 38.9604 10.5129 38.8741C10.7799 38.698 10.8879 38.3944 10.8049 38.1172L10.7621 37.974C10.4502 36.9322 9.59603 36.1345 8.51028 35.8277L8.3236 34.399C8.27124 33.9984 8.51648 33.6154 8.92067 33.4662L12.7157 32.0662C12.7151 32.1035 12.7137 32.1404 12.7109 32.1762C12.7106 32.1805 12.7103 32.1849 12.71 32.1892C12.6726 32.8496 12.6446 33.4444 12.6267 33.9572C12.602 34.6613 12.8921 35.343 13.4291 35.8411L16.6144 38.7959C16.7552 38.9266 16.9461 38.9999 17.1452 38.9999H21.7506C22.1468 38.9999 22.4809 38.6992 22.5022 38.3322C22.5766 37.0554 21.6076 35.9501 20.2432 35.7583L18.9262 35.5733L18.3821 34.7803C18.1148 34.3905 18.1235 33.8923 18.4044 33.5107L21.9965 28.6313C23.0882 28.3186 27.6923 27.0839 30.3922 27.6688C30.4277 27.9985 30.5258 28.3211 30.6839 28.6225L35.9208 38.6082C36.0464 38.8478 36.3086 38.9999 36.5959 38.9999H40.1578C40.3157 38.9999 40.4732 38.9619 40.6029 38.8786C40.8688 38.7079 40.9815 38.4105 40.9071 38.1347L40.6653 37.2375C40.4319 36.3715 39.7349 35.7072 38.8561 35.4475L39.7283 28.4093C39.7647 28.1155 39.8588 27.8309 40.0066 27.569C40.5489 26.6076 41.6143 24.7596 42.6485 23.1994C43.4613 21.9733 43.9842 20.5636 44.1606 19.1225C44.429 16.93 44.9553 14.1295 45.0857 13.448C45.6637 12.6804 45.9299 11.6644 45.8565 10.4727C45.8361 10.1416 45.7757 9.81992 45.6767 9.51323C45.9017 8.89297 46.5471 7.11001 46.9395 5.9954C47.0913 5.56428 46.9527 5.0937 46.5772 4.79323ZM8.36584 32.172C7.32903 32.5545 6.69872 33.5392 6.83305 34.5666L7.0841 36.488C7.12584 36.8071 7.3975 37.0583 7.74163 37.0958C8.17785 37.1434 8.56873 37.3282 8.85981 37.607H6.74577L5.86742 31.5327C5.81357 31.1608 6.01916 30.7956 6.37881 30.624C8.04623 29.8285 9.23117 28.3731 9.61044 26.6826C10.9614 28.1605 11.9247 29.5571 12.3932 30.6861L8.36584 32.172ZM41.3696 22.4698C40.3123 24.0646 39.229 25.9433 38.6774 26.9212C38.4426 27.3373 38.2944 27.7845 38.2366 28.2502L37.8251 31.5715L36.9185 27.4081C36.8326 27.0136 36.9307 26.6014 37.1877 26.2772L39.256 23.6678C40.3993 22.2255 40.9195 20.4504 40.7209 18.6695C40.6782 18.2869 40.3091 18.009 39.8969 18.0485C39.4845 18.088 39.1847 18.4303 39.2274 18.8128C39.3876 20.2486 38.9682 21.6798 38.0464 22.8427L35.9781 25.4521C35.471 26.0919 35.2773 26.9053 35.4467 27.6839L37.2932 36.1625C37.364 36.4874 37.6718 36.721 38.0291 36.721C38.5881 36.721 39.0733 37.0724 39.2089 37.5755L39.2175 37.6074H37.0656L32.034 28.0131C31.9059 27.7688 31.8555 27.497 31.8883 27.227L32.6328 21.0981C32.6793 20.7159 32.3829 20.3712 31.9709 20.3282C31.5583 20.2853 31.1873 20.56 31.1409 20.9422L30.4939 26.2686C28.0435 25.8384 24.6758 26.5041 22.7632 26.977C22.9182 26.0429 22.6649 25.0678 22.0093 24.2823L20.9124 22.968C20.6585 22.6639 20.1871 22.6082 19.8592 22.8437C19.5313 23.0791 19.4713 23.5166 19.7251 23.8207L20.8221 25.135C21.4355 25.87 21.468 26.8796 20.9029 27.6473L17.1645 32.7253C16.5444 33.5675 16.5251 34.6677 17.1154 35.5281L17.8427 36.5883C17.9592 36.7581 18.1492 36.8728 18.3636 36.903L20.0182 37.1355C20.3574 37.1831 20.6406 37.3604 20.8153 37.6072H17.4561L14.4908 34.8564C14.2486 34.6318 14.1162 34.3206 14.1273 34.0026C14.1448 33.5005 14.1724 32.9172 14.2091 32.2685C14.3755 30.039 12.0268 27.1494 10.6109 25.6244C10.3614 25.3556 10.228 25.0136 10.2355 24.6612L10.3202 20.654C10.3217 20.5847 10.1966 20.1412 10.1966 20.1412C9.60714 18.2272 8.24622 16.6194 6.3644 15.6138C2.1283 13.3499 1.38908 10.6142 1.5149 8.71776C1.77916 4.73371 3.29022 2.51954 4.16747 1.55433C4.33634 1.36863 4.62962 1.34254 4.83502 1.49509C4.98076 1.60327 5.01059 1.74366 5.01529 1.81776C5.02 1.8912 5.00869 2.03271 4.87936 2.15481C3.77139 3.20099 2.4366 5.11311 2.36953 8.28153C2.28955 12.0647 6.30995 14.3789 8.71357 15.4216C10.0017 15.9803 11.08 16.9238 11.7498 18.0782C11.7498 18.0782 11.7848 18.1383 11.7917 18.1489C11.9022 18.3198 12.087 18.439 12.2982 18.4756C12.5126 18.5128 12.7346 18.4614 12.9051 18.3351C13.6866 17.7564 19.5181 16.4514 33.3817 14.6781C34.3741 14.5512 35.243 14.0428 35.7953 13.2886C35.9344 13.4966 36.0935 13.6892 36.2746 13.8629C37.035 14.5922 38.1249 14.9753 39.4327 14.9753C39.4815 14.9753 41.4013 14.9738 41.4013 14.9738C41.4056 14.9738 41.4099 14.9738 41.4142 14.9737C42.1202 14.9889 42.765 14.8939 43.3327 14.6959C43.1189 15.8967 42.8418 17.552 42.6687 18.9652C42.5171 20.2047 42.0678 21.4165 41.3696 22.4698ZM44.1803 9.27135C44.119 9.42576 44.1179 9.59745 44.1814 9.7552C44.281 10.0029 44.3403 10.2711 44.3576 10.5521C44.4205 11.5742 44.1725 12.3842 43.6403 12.8947C43.1502 13.3648 42.3905 13.6019 41.4442 13.5813C41.4368 13.5811 41.4297 13.5811 41.4226 13.5811C41.4155 13.5811 39.5624 13.5795 39.5274 13.5818C38.5916 13.5976 37.8403 13.3612 37.3538 12.8947C36.8216 12.3843 36.5735 11.5743 36.6365 10.5523C36.6538 10.2714 36.7132 10.0032 36.8128 9.7553C36.8755 9.59893 36.875 9.42892 36.8153 9.27562C36.8147 9.27415 36.8142 9.27257 36.8136 9.27088C36.7421 9.07391 36.1266 7.37848 35.6694 6.09308C37.1354 6.68678 38.1075 7.74549 38.1173 7.75626C38.3285 7.99146 38.6808 8.07103 38.9852 7.95237C39.9461 7.57733 41.0482 7.57733 42.0089 7.95237C42.3119 8.07057 42.6639 7.99099 42.8756 7.75756C42.8864 7.74568 43.8587 6.68678 45.3247 6.09308C44.8671 7.37956 44.2509 9.07728 44.1803 9.27135Z" fill="#FFFDFB"/>
<path d="M36.8136 9.27088L36.8153 9.27562C37.2561 8.125 37.2561 8.125 38.1173 7.75626C38.1075 7.74549 37.1354 6.68678 35.6694 6.09308C36.1266 7.37848 36.7421 9.07391 36.8136 9.27088Z" fill="#FFFDFB"/>
<path d="M45.3247 6.09308C43.8587 6.68678 42.8864 7.74568 42.8756 7.75756C44.1199 8.12083 44.134 8.38967 44.1787 9.24176L44.1803 9.27135C44.2509 9.07728 44.8671 7.37956 45.3247 6.09308Z" fill="#FFFDFB"/>
<path d="M4.16747 1.55433C3.29022 2.51954 1.77916 4.73371 1.5149 8.71776L2.36953 8.28153C2.4366 5.11311 3.77139 3.20099 4.87936 2.15481C5.00869 2.03271 5.02 1.8912 5.01529 1.81776C5.01059 1.74366 4.98076 1.60327 4.83502 1.49509C4.62962 1.34254 4.33634 1.36863 4.16747 1.55433Z" fill="#FFFDFB"/>
</svg>
