<svg width="41" height="43" viewBox="0 0 41 43" fill="none" xmlns="http://www.w3.org/2000/svg">
<path d="M15.0743 13.7748C14.8228 14.3679 14.6971 14.9946 14.7005 15.6378C14.7074 16.9303 15.2468 18.1561 16.2193 19.0896C17.1922 20.0233 18.4889 20.5591 19.8705 20.5983C20.9488 20.6283 22.012 20.3517 22.9137 19.8114C23.7705 20.3248 24.7728 20.6007 25.7959 20.6007C25.8495 20.6007 25.9032 20.5999 25.957 20.5984C27.3246 20.5597 28.612 20.0328 29.5821 19.1151C30.552 18.1974 31.1004 16.9876 31.1261 15.7084C31.1423 14.9084 30.9616 14.1408 30.5891 13.4271C30.2482 12.7739 27.4888 9.94428 26.5131 8.90698C26.2686 8.64711 26.9251 9.5556 26.6474 9.78406C26.3695 10.0125 25.465 9.64974 25.7093 9.90953C26.5925 10.8486 29.1009 13.433 29.3847 13.9767C29.6633 14.5104 29.7984 15.0851 29.7863 15.6848C29.7461 17.6774 28.0462 19.2856 25.9164 19.346C24.9822 19.3731 24.0619 19.0902 23.3277 18.551C23.0847 18.3726 22.7428 18.3726 22.4998 18.551C21.7656 19.0902 20.8454 19.3725 19.9111 19.346C17.7875 19.2858 16.0511 17.6195 16.0405 15.6317C16.0379 15.1495 16.1319 14.6801 16.3199 14.2366C16.7546 13.2115 17.6945 12.0524 19.4628 10.361C21.124 8.77199 23.8093 8.57786 25.7093 9.90953C26.0054 10.117 26.4254 10.0609 26.6474 9.78406C26.8693 9.50724 26.8092 9.11456 26.5131 8.90698C24.0771 7.19959 20.6341 7.4481 18.5045 9.4851C16.579 11.3268 15.5852 12.5697 15.0743 13.7748Z" fill="#FFFDFB"/>
<path d="M19.3773 7.47567C21.0994 7.47567 22.5003 5.79885 22.5003 3.73788C22.5003 1.6769 21.0994 0 19.3773 0C17.6553 0 16.2543 1.67673 16.2543 3.73779C16.2543 5.79885 17.6553 7.47567 19.3773 7.47567ZM19.3773 1.25298C20.3437 1.25298 21.1602 2.39093 21.1602 3.73779C21.1602 5.08474 20.3437 6.22261 19.3773 6.22261C18.411 6.22261 17.5944 5.08474 17.5944 3.73779C17.5945 2.39093 18.411 1.25298 19.3773 1.25298Z" fill="#FFFDFB"/>
<path d="M19.3773 1.25298C20.3437 1.25298 21.1602 2.39093 21.1602 3.73779C21.1602 5.08474 20.3437 6.22261 19.3773 6.22261C18.411 6.22261 17.5944 5.08474 17.5944 3.73779C17.5945 2.39093 18.411 1.25298 19.3773 1.25298Z" fill="#FFFDFB"/>
<path d="M12.9787 11.9551C14.3684 11.9551 15.457 10.6725 15.457 9.03511C15.457 7.39772 14.3684 6.11509 12.9787 6.11509C11.589 6.11509 10.5005 7.39772 10.5005 9.03511C10.5005 10.6725 11.589 11.9551 12.9787 11.9551ZM12.9787 7.36807C13.5957 7.36807 14.1169 8.13146 14.1169 9.03511C14.1169 9.93876 13.5957 10.7022 12.9787 10.7022C12.3618 10.7022 11.8406 9.93876 11.8406 9.03511C11.8406 8.13146 12.3618 7.36807 12.9787 7.36807Z" fill="#FFFDFB"/>
<path d="M12.9787 7.36807C13.5957 7.36807 14.1169 8.13146 14.1169 9.03511C14.1169 9.93876 13.5957 10.7022 12.9787 10.7022C12.3618 10.7022 11.8406 9.93876 11.8406 9.03511C11.8406 8.13146 12.3618 7.36807 12.9787 7.36807Z" fill="#FFFDFB"/>
<path d="M32.5937 11.9551C33.9834 11.9551 35.072 10.6725 35.072 9.03511C35.072 7.39772 33.9834 6.11509 32.5937 6.11509C31.204 6.11509 30.1155 7.39772 30.1155 9.03511C30.1155 10.6725 31.204 11.9551 32.5937 11.9551ZM32.5937 7.36807C33.2107 7.36807 33.7319 8.13146 33.7319 9.03511C33.7319 9.93876 33.2107 10.7022 32.5937 10.7022C31.9768 10.7022 31.4556 9.93876 31.4556 9.03511C31.4556 8.13146 31.9768 7.36807 32.5937 7.36807Z" fill="#FFFDFB"/>
<path d="M32.5937 7.36807C33.2107 7.36807 33.7319 8.13146 33.7319 9.03511C33.7319 9.93876 33.2107 10.7022 32.5937 10.7022C31.9768 10.7022 31.4556 9.93876 31.4556 9.03511C31.4556 8.13146 31.9768 7.36807 32.5937 7.36807Z" fill="#FFFDFB"/>
<path d="M27.2188 7.47567C28.9409 7.47567 30.3419 5.79885 30.3419 3.73788C30.3419 1.6769 28.9409 0 27.2188 0C25.4968 0 24.0958 1.67673 24.0958 3.73779C24.0958 5.79885 25.4968 7.47567 27.2188 7.47567ZM27.2188 1.25298C28.1852 1.25298 29.0018 2.39093 29.0018 3.73779C29.0018 5.08474 28.1853 6.22261 27.2188 6.22261C26.2524 6.22261 25.4359 5.08474 25.4359 3.73779C25.4359 2.39093 26.2523 1.25298 27.2188 1.25298Z" fill="#FFFDFB"/>
<path d="M27.2188 1.25298C28.1852 1.25298 29.0018 2.39093 29.0018 3.73779C29.0018 5.08474 28.1853 6.22261 27.2188 6.22261C26.2524 6.22261 25.4359 5.08474 25.4359 3.73779C25.4359 2.39093 26.2523 1.25298 27.2188 1.25298Z" fill="#FFFDFB"/>
<path d="M39.9483 19.9384C39.269 19.3034 38.3659 18.9535 37.4052 18.9535C36.4446 18.9535 35.5413 19.3034 34.862 19.9384L30.9184 23.6255C30.26 22.9476 29.3102 22.5212 28.2559 22.5212H22.6072C22.2372 22.5212 23.3143 22.8017 23.3143 23.1477C23.3143 23.4936 22.2372 23.7741 22.6072 23.7741H28.2559C29.5002 23.7741 30.5125 24.7206 30.5125 25.884C30.5125 27.0473 29.5002 27.9938 28.2559 27.9938H22.6072C22.2372 27.9938 21.9372 28.2743 21.9372 28.6203C21.9372 28.9663 22.2372 29.2468 22.6072 29.2468H28.2559C30.2391 29.2468 31.8526 27.7383 31.8526 25.884C31.8526 25.4777 31.775 25.088 31.6332 24.7272C31.6409 24.7206 31.6489 24.7145 31.6563 24.7076L35.8096 20.8244C36.6894 20.0018 38.121 20.0018 39.0008 20.8244C39.8806 21.6471 39.8806 22.9855 39.0008 23.8081L30.6742 31.5933H22.9949C22.6249 31.5933 23.3143 31.8738 23.3143 32.2198C23.3143 32.5658 22.9443 32.8463 23.3143 32.8463H30.9518C31.1294 32.8463 31.2999 32.7803 31.4255 32.6628L39.9483 24.6941C41.3506 23.3831 41.3506 21.2497 39.9483 19.9384Z" fill="#FFFDFB"/>
<path d="M23.4859 31.5934H20.4355C20.2592 31.5934 20.09 31.6583 19.9646 31.7742L17.8577 33.7198L12.7092 28.9061C12.6106 28.5627 12.5608 28.208 12.5608 27.8495C12.5608 25.608 14.5111 23.7844 16.9086 23.7844C16.9482 23.7844 16.9869 23.7806 17.0247 23.7744H22.9142C23.2842 23.7744 23.5842 23.4939 23.5842 23.1479C23.5842 22.8019 23.2842 22.5214 22.9142 22.5214H16.3785C16.2701 22.5214 16.168 22.546 16.0775 22.5888C13.3914 22.9582 11.3115 25.0892 11.2252 27.6822L10.6836 27.1759C10.422 26.9312 9.99768 26.9312 9.7361 27.1759L6.18599 30.4952C6.16312 30.5165 6.14302 30.5393 6.12426 30.5628L0.180915 36.7796C0.0713839 36.8941 0.0107221 37.0423 0.0104541 37.1959L1.27858e-06 42.3436C-0.000713442 42.6894 0.298308 42.9703 0.668175 42.9713L11.7102 43H11.7121C11.8898 43 12.0602 42.934 12.1859 42.8165L19.3252 36.1413C19.4509 36.0239 19.5215 35.8645 19.5215 35.6983C19.5215 35.5322 19.4509 35.3728 19.3252 35.2554L18.7175 34.6872L20.7108 32.8465H23.4862C23.8562 32.8465 24.1562 32.566 24.1562 32.22C24.1559 31.8739 23.8559 31.5934 23.4859 31.5934ZM11.4351 41.7462L1.34117 41.7199L1.34993 37.4366L6.68934 31.8517L14.3535 39.0176L11.4351 41.7462ZM15.3419 38.0934L7.64813 30.8998L10.2098 28.5047L17.9036 35.6983L15.3419 38.0934Z" fill="#FFFDFB"/>
</svg>
