<?xml version="1.0" encoding="utf-8"?>
<!-- Generator: Adobe Illustrator 25.0.0, SVG Export Plug-In . SVG Version: 6.00 Build 0)  -->
<svg version="1.1" id="Warstwa_1" xmlns="http://www.w3.org/2000/svg" xmlns:xlink="http://www.w3.org/1999/xlink" x="0px" y="0px"
	 viewBox="0 0 55 37" style="enable-background:new 0 0 55 37;" xml:space="preserve">
<style type="text/css">
	.st0{fill:#FFFDFB;}
	.st1{fill:none;stroke:#FFFDFB;stroke-width:2;stroke-linecap:round;stroke-linejoin:round;}
	.st2{fill:#FFFFFF;filter:url(#Adobe_OpacityMaskFilter);}
	.st3{fill:#FFFFFF;}
	.st4{mask:url(#path-4-inside-1_1_);fill:none;stroke:#FFFDFB;stroke-width:2;}
	.st5{fill:#FFFFFF;filter:url(#Adobe_OpacityMaskFilter_1_);}
	.st6{mask:url(#path-4-inside-1_2_);fill:none;stroke:#FFFDFB;stroke-width:2;}
</style>
<path class="st0" d="M29.2,19.6c3.3,0,6,3.4,6,4.3c0,0.9-2.7,3.7-6,3.7c-3.3,0-5.7-3.7-5.7-3.7S25.9,19.6,29.2,19.6z"/>
<path class="st1" d="M19.9,20.5l3.6,3.4 M23.5,23.9l-3.6,3.4 M23.5,23.9c0,0,2.4,3.7,5.7,3.7c3.3,0,6-2.9,6-3.7c0-0.9-2.7-4.3-6-4.3
	C25.9,19.6,23.5,23.9,23.5,23.9z"/>
<path class="st0" d="M54,34.3l-3.3-22.4c-0.1-0.7-0.8-1.3-1.5-1.3H45c-0.7-3.1-3.5-4-3.9-4.1c-1.5-2.9-4.7-3.1-5-3.1
	c-1.9-1.9-4.4-1.9-5.7-1.6c-1.2-0.7-3.6-1.3-6,0c-1.3-0.3-3.8-0.3-5.7,1.6c-0.3,0-3.5,0.1-5,3.1c-0.3,0.1-3.1,1-3.9,4.1H5.9
	c-0.8,0-1.4,0.5-1.5,1.3L1,34.3c-0.1,0.4,0.1,0.9,0.4,1.2C1.7,35.8,2.1,36,2.6,36h49.9c0.5,0,0.9-0.2,1.2-0.5
	C53.9,35.2,54,34.7,54,34.3z M14.5,8.1C15.2,8,15.7,7.6,15.9,7c0.3-1.1,2.3-1.9,3.4-1.7c0.6,0.1,1.3-0.2,1.6-0.7
	c0.6-0.9,2.2-1.4,3.2-0.9c0.6,0.3,1.3,0.2,1.7-0.2c0.8-0.7,2.5-0.7,3.4,0c0.5,0.4,1.2,0.5,1.7,0.2c1-0.5,3.2,0,3.8,0.9
	c0.3,0.5,1,0.8,1.6,0.7c1.1-0.2,3.1,0.6,3.4,1.7c0.2,0.6,0.7,1,1.3,1.1c0.2,0,1.3,1.4,1.9,2.5H12C12.6,9.6,14.2,8.1,14.5,8.1z
	 M2.6,34.7L6,11.9H49l3.5,22.9H2.6z"/>
<path class="st0" d="M14.5,8.1C15.2,8,15.7,7.6,15.9,7c0.3-1.1,2.3-1.9,3.4-1.7c0.6,0.1,1.3-0.2,1.6-0.7c0.6-0.9,2.2-1.4,3.2-0.9
	c0.6,0.3,1.3,0.2,1.7-0.2c0.8-0.7,2.5-0.7,3.4,0c0.5,0.4,1.2,0.5,1.7,0.2c1-0.5,3.2,0,3.8,0.9c0.3,0.5,1,0.8,1.6,0.7
	c1.1-0.2,3.1,0.6,3.4,1.7c0.2,0.6,0.7,1,1.3,1.1c0.2,0,1.3,1.4,1.9,2.5H12C12.6,9.6,14.2,8.1,14.5,8.1z"/>
<defs>
	<filter id="Adobe_OpacityMaskFilter" filterUnits="userSpaceOnUse" x="0" y="0" width="55" height="37">
		<feColorMatrix  type="matrix" values="1 0 0 0 0  0 1 0 0 0  0 0 1 0 0  0 0 0 1 0"/>
	</filter>
</defs>
<mask maskUnits="userSpaceOnUse" x="0" y="0" width="55" height="37" id="path-4-inside-1_1_">
	<path class="st2" d="M54,34.3l-3.3-22.4c-0.1-0.7-0.8-1.3-1.5-1.3H45c-0.7-3.1-3.5-4-3.9-4.1c-1.5-2.9-4.7-3.1-5-3.1
		c-1.9-1.9-4.4-1.9-5.7-1.6c-1.2-0.7-3.6-1.3-6,0c-1.3-0.3-3.8-0.3-5.7,1.6c-0.3,0-3.5,0.1-5,3.1c-0.3,0.1-3.1,1-3.9,4.1H5.9
		c-0.8,0-1.4,0.5-1.5,1.3L1,34.3c-0.1,0.4,0.1,0.9,0.4,1.2C1.7,35.8,2.1,36,2.6,36h49.9c0.5,0,0.9-0.2,1.2-0.5
		C53.9,35.2,54,34.7,54,34.3z M14.5,8.1C15.2,8,15.7,7.6,15.9,7c0.3-1.1,2.3-1.9,3.4-1.7c0.6,0.1,1.3-0.2,1.6-0.7
		c0.6-0.9,2.2-1.4,3.2-0.9c0.6,0.3,1.3,0.2,1.7-0.2c0.8-0.7,2.5-0.7,3.4,0c0.5,0.4,1.2,0.5,1.7,0.2c1-0.5,3.2,0,3.8,0.9
		c0.3,0.5,1,0.8,1.6,0.7c1.1-0.2,3.1,0.6,3.4,1.7c0.2,0.6,0.7,1,1.3,1.1c0.2,0,1.3,1.4,1.9,2.5H12C12.6,9.6,14.2,8.1,14.5,8.1z
		 M2.6,34.7L6,11.9H49l3.5,22.9H2.6z"/>
	<path class="st3" d="M14.5,8.1C15.2,8,15.7,7.6,15.9,7c0.3-1.1,2.3-1.9,3.4-1.7c0.6,0.1,1.3-0.2,1.6-0.7c0.6-0.9,2.2-1.4,3.2-0.9
		c0.6,0.3,1.3,0.2,1.7-0.2c0.8-0.7,2.5-0.7,3.4,0c0.5,0.4,1.2,0.5,1.7,0.2c1-0.5,3.2,0,3.8,0.9c0.3,0.5,1,0.8,1.6,0.7
		c1.1-0.2,3.1,0.6,3.4,1.7c0.2,0.6,0.7,1,1.3,1.1c0.2,0,1.3,1.4,1.9,2.5H12C12.6,9.6,14.2,8.1,14.5,8.1z"/>
</mask>
<path class="st4" d="M54,34.3l-3.3-22.4c-0.1-0.7-0.8-1.3-1.5-1.3H45c-0.7-3.1-3.5-4-3.9-4.1c-1.5-2.9-4.7-3.1-5-3.1
	c-1.9-1.9-4.4-1.9-5.7-1.6c-1.2-0.7-3.6-1.3-6,0c-1.3-0.3-3.8-0.3-5.7,1.6c-0.3,0-3.5,0.1-5,3.1c-0.3,0.1-3.1,1-3.9,4.1H5.9
	c-0.8,0-1.4,0.5-1.5,1.3L1,34.3c-0.1,0.4,0.1,0.9,0.4,1.2C1.7,35.8,2.1,36,2.6,36h49.9c0.5,0,0.9-0.2,1.2-0.5
	C53.9,35.2,54,34.7,54,34.3z M14.5,8.1C15.2,8,15.7,7.6,15.9,7c0.3-1.1,2.3-1.9,3.4-1.7c0.6,0.1,1.3-0.2,1.6-0.7
	c0.6-0.9,2.2-1.4,3.2-0.9c0.6,0.3,1.3,0.2,1.7-0.2c0.8-0.7,2.5-0.7,3.4,0c0.5,0.4,1.2,0.5,1.7,0.2c1-0.5,3.2,0,3.8,0.9
	c0.3,0.5,1,0.8,1.6,0.7c1.1-0.2,3.1,0.6,3.4,1.7c0.2,0.6,0.7,1,1.3,1.1c0.2,0,1.3,1.4,1.9,2.5H12C12.6,9.6,14.2,8.1,14.5,8.1z
	 M2.6,34.7L6,11.9H49l3.5,22.9H2.6z"/>
<defs>
	<filter id="Adobe_OpacityMaskFilter_1_" filterUnits="userSpaceOnUse" x="10.4" y="1.8" width="34.3" height="9.8">
		<feColorMatrix  type="matrix" values="1 0 0 0 0  0 1 0 0 0  0 0 1 0 0  0 0 0 1 0"/>
	</filter>
</defs>
<mask maskUnits="userSpaceOnUse" x="10.4" y="1.8" width="34.3" height="9.8" id="path-4-inside-1_2_">
	<path class="st5" d="M54,34.3l-3.3-22.4c-0.1-0.7-0.8-1.3-1.5-1.3H45c-0.7-3.1-3.5-4-3.9-4.1c-1.5-2.9-4.7-3.1-5-3.1
		c-1.9-1.9-4.4-1.9-5.7-1.6c-1.2-0.7-3.6-1.3-6,0c-1.3-0.3-3.8-0.3-5.7,1.6c-0.3,0-3.5,0.1-5,3.1c-0.3,0.1-3.1,1-3.9,4.1H5.9
		c-0.8,0-1.4,0.5-1.5,1.3L1,34.3c-0.1,0.4,0.1,0.9,0.4,1.2C1.7,35.8,2.1,36,2.6,36h49.9c0.5,0,0.9-0.2,1.2-0.5
		C53.9,35.2,54,34.7,54,34.3z M14.5,8.1C15.2,8,15.7,7.6,15.9,7c0.3-1.1,2.3-1.9,3.4-1.7c0.6,0.1,1.3-0.2,1.6-0.7
		c0.6-0.9,2.2-1.4,3.2-0.9c0.6,0.3,1.3,0.2,1.7-0.2c0.8-0.7,2.5-0.7,3.4,0c0.5,0.4,1.2,0.5,1.7,0.2c1-0.5,3.2,0,3.8,0.9
		c0.3,0.5,1,0.8,1.6,0.7c1.1-0.2,3.1,0.6,3.4,1.7c0.2,0.6,0.7,1,1.3,1.1c0.2,0,1.3,1.4,1.9,2.5H12C12.6,9.6,14.2,8.1,14.5,8.1z
		 M2.6,34.7L6,11.9H49l3.5,22.9H2.6z"/>
	<path class="st3" d="M14.5,8.1C15.2,8,15.7,7.6,15.9,7c0.3-1.1,2.3-1.9,3.4-1.7c0.6,0.1,1.3-0.2,1.6-0.7c0.6-0.9,2.2-1.4,3.2-0.9
		c0.6,0.3,1.3,0.2,1.7-0.2c0.8-0.7,2.5-0.7,3.4,0c0.5,0.4,1.2,0.5,1.7,0.2c1-0.5,3.2,0,3.8,0.9c0.3,0.5,1,0.8,1.6,0.7
		c1.1-0.2,3.1,0.6,3.4,1.7c0.2,0.6,0.7,1,1.3,1.1c0.2,0,1.3,1.4,1.9,2.5H12C12.6,9.6,14.2,8.1,14.5,8.1z"/>
</mask>
<path class="st6" d="M14.5,8.1C15.2,8,15.7,7.6,15.9,7c0.3-1.1,2.3-1.9,3.4-1.7c0.6,0.1,1.3-0.2,1.6-0.7c0.6-0.9,2.2-1.4,3.2-0.9
	c0.6,0.3,1.3,0.2,1.7-0.2c0.8-0.7,2.5-0.7,3.4,0c0.5,0.4,1.2,0.5,1.7,0.2c1-0.5,3.2,0,3.8,0.9c0.3,0.5,1,0.8,1.6,0.7
	c1.1-0.2,3.1,0.6,3.4,1.7c0.2,0.6,0.7,1,1.3,1.1c0.2,0,1.3,1.4,1.9,2.5H12C12.6,9.6,14.2,8.1,14.5,8.1z"/>
</svg>
