<svg width="51" height="31" viewBox="0 0 51 31" fill="none" xmlns="http://www.w3.org/2000/svg">
<path d="M50.8329 17.5535C50.6102 17.3285 46.378 12.0399 37.1339 11.8711C36.2429 10.2958 32.846 5.17604 27.333 5.17604H27.166L24.7157 0.45009C24.5487 0.168784 24.2702 0 23.9918 0H20.2051C19.871 0 19.5925 0.168784 19.4811 0.45009L17.2537 5.11978H16.5297C16.307 5.11978 11.0724 4.72595 5.61508 11.8149H1.38286C0.993053 11.8149 0.658931 12.0962 0.547557 12.49C0.49187 12.8276 -1.17874 20.9292 1.60561 24.4174C2.4966 25.4864 3.66603 26.049 5.11389 26.049H6.28332C6.67313 28.8621 9.06767 31 11.9634 31C14.8591 31 17.2537 28.8621 17.6435 26.049H33.9041C34.2939 28.8621 36.6884 31 39.5842 31C42.4799 31 44.8744 28.8621 45.2642 26.049H50.1647C50.6102 26.049 51 25.6552 51 25.2051V18.0599C51 17.8911 50.9443 17.6661 50.8329 17.5535ZM27.333 6.80762C31.2311 6.80762 33.9041 10.0708 35.1292 11.8711H23.0451V6.80762H27.333ZM20.7619 1.68784H23.4906L25.2726 5.17604H22.2098H19.0913L20.7619 1.68784ZM16.474 6.80762H21.4302V11.8711H7.78687C12.2975 6.63884 16.3627 6.80762 16.474 6.80762ZM11.9634 29.3684C9.73591 29.3684 7.89824 27.5118 7.89824 25.2613C7.89824 23.0109 9.73591 21.1543 11.9634 21.1543C14.1909 21.1543 16.0285 23.0109 16.0285 25.2613C16.0842 27.5118 14.2466 29.3684 11.9634 29.3684ZM39.5842 29.3684C37.3567 29.3684 35.519 27.5118 35.519 25.2613C35.519 23.0109 37.3567 21.1543 39.5842 21.1543C41.8116 21.1543 43.6493 23.0109 43.6493 25.2613C43.6493 27.5118 41.8673 29.3684 39.5842 29.3684ZM49.3294 24.4174H45.2642C44.8744 21.6044 42.4799 19.4664 39.5842 19.4664C36.6884 19.4664 34.2939 21.6044 33.9041 24.4174H17.6435C17.2537 21.6044 14.8591 19.4664 11.9634 19.4664C9.06767 19.4664 6.67313 21.6044 6.28332 24.4174H5.11389C4.16721 24.4174 3.44328 24.0799 2.88641 23.4047C1.16011 21.2105 1.60561 16.0907 2.05111 13.559H6.00488H36.6327C44.3732 13.559 48.4384 17.441 49.3294 18.3975V24.4174Z" fill="#FFFDFB"/>
<path d="M20.7619 1.68784H23.4906L25.2726 5.17604H22.2098H19.0913L20.7619 1.68784Z" fill="#FFFDFB"/>
<path d="M11.9634 29.3684C9.73591 29.3684 7.89824 27.5118 7.89824 25.2613C7.89824 23.0109 9.73591 21.1543 11.9634 21.1543C14.1909 21.1543 16.0285 23.0109 16.0285 25.2613C16.0842 27.5118 14.2466 29.3684 11.9634 29.3684Z" fill="#FFFDFB"/>
<path d="M39.5842 29.3684C37.3567 29.3684 35.519 27.5118 35.519 25.2613C35.519 23.0109 37.3567 21.1543 39.5842 21.1543C41.8116 21.1543 43.6493 23.0109 43.6493 25.2613C43.6493 27.5118 41.8673 29.3684 39.5842 29.3684Z" fill="#FFFDFB"/>
</svg>
