<svg width="31" height="35" viewBox="0 0 31 55" fill="none" xmlns="http://www.w3.org/2000/svg">
<path d="M30.1806 12.6389C30.6331 12.6389 31 13.0058 31 13.4584C31 13.9109 30.6331 14.2778 30.1806 14.2778H22.8522C22.3996 14.2778 22.0328 13.9109 22.0328 13.4584C22.0328 13.0058 22.3996 12.6389 22.8522 12.6389H30.1806ZM27.2395 17.1568C27.2395 16.7042 26.8727 16.3374 26.4201 16.3374H22.8522C22.3996 16.3374 22.0328 16.7042 22.0328 17.1568C22.0328 17.6093 22.3996 17.9762 22.8522 17.9762H26.4201C26.8727 17.9762 27.2395 17.6093 27.2395 17.1568ZM22.0328 20.8552C22.0328 21.3077 22.3996 21.6746 22.8522 21.6746H30.1806C30.6331 21.6746 31 21.3077 31 20.8552C31 20.4026 30.6331 20.0358 30.1806 20.0358H22.8522C22.3996 20.0358 22.0328 20.4026 22.0328 20.8552ZM27.2395 24.5548C27.2395 24.1022 26.8727 23.7354 26.4201 23.7354H22.8522C22.3996 23.7354 22.0328 24.1022 22.0328 24.5548C22.0328 25.0073 22.3996 25.3742 22.8522 25.3742H26.4201C26.8727 25.3742 27.2395 25.0073 27.2395 24.5548ZM22.0328 28.2532C22.0328 28.7058 22.3996 29.0726 22.8522 29.0726H30.1806C30.6331 29.0726 31 28.7058 31 28.2532C31 27.8006 30.6331 27.4338 30.1806 27.4338H22.8522C22.3996 27.4338 22.0328 27.8006 22.0328 28.2532ZM23.4305 43.1337C23.4305 49.6769 18.1751 55 11.7153 55C5.25537 55 0 49.6769 0 43.1337C0 38.8934 2.19842 35.04 5.78531 32.9081V6.00641C5.78531 2.69439 8.44539 0 11.7153 0C14.9851 0 17.6452 2.69439 17.6452 6.00641V32.9081C21.2321 35.0376 23.4305 38.8923 23.4305 43.1337ZM21.8053 43.1337C21.8053 39.5357 19.8313 35.5783 16.6529 33.9434L16.02 33.6176V6.00759C16.02 3.98709 13.7089 1.64001 11.7153 1.64001C9.72163 1.64001 7.41054 3.98709 7.41054 6.00759V33.6176L6.77763 33.9434C3.59918 35.5795 1.62523 39.5369 1.62523 43.1337C1.62523 48.3842 6.53161 53.3612 11.7153 53.3612C16.8989 53.3612 21.8053 48.3842 21.8053 43.1337ZM19.1887 43.1337C19.1887 47.3071 15.8367 50.7023 11.7153 50.7023C7.59495 50.7023 4.24294 47.3071 4.24294 43.1337C4.24294 39.7127 7.21356 36.7089 10.4811 35.8287L10.9104 35.7127V22.0617C10.9104 21.6169 11.271 21.2563 11.7158 21.2563C12.1607 21.2563 12.5213 21.6169 12.5213 22.0617V35.7115L12.9506 35.8287C16.2193 36.7089 19.1887 39.7138 19.1887 43.1337ZM12.7444 38.0769C12.5663 37.2753 11.8002 37.4644 10.9891 37.6519C8.15656 38.3012 6.17799 40.8104 6.17799 43.7544C6.17799 44.5877 6.17799 45.4808 7.23333 45.4808C7.79306 45.4808 7.92222 44.5512 7.92222 43.7179C7.92222 42.2213 8.83681 39.9881 10.9891 39.4872C11.7897 39.3008 12.9249 38.8879 12.7444 38.0769Z" fill="#FFFDFB"/>
</svg>
