<svg width="47" height="37" viewBox="0 0 47 37" fill="none" xmlns="http://www.w3.org/2000/svg">
<path d="M46.9987 14.6244C46.98 14.2178 46.7407 13.4641 45.3486 12.9845L8.23383 0.209733C6.33133 -0.445546 4.22 0.486148 3.52748 2.28714L2.52277 4.90001L0.262264 10.7792C-0.430161 12.5803 0.554271 14.5787 2.45713 15.2343L13.2741 18.9568C13.0686 20.1404 13.4115 21.3097 14.1578 22.2043L11.8535 28.1969C11.7474 28.4727 11.4677 28.658 11.1573 28.658H4.40626V26.5725C4.40626 25.4226 3.41797 24.487 2.20313 24.487H0.734376C0.328817 24.487 0 24.7983 0 25.1822V36.3048C0 36.6887 0.328817 37 0.734376 37H2.20313C3.41797 37 4.40626 36.0644 4.40626 34.9145V32.829H11.1573C13.3134 32.829 15.2571 31.5405 15.994 29.6229L18.2498 23.7563C19.5407 23.5847 20.7139 22.8712 21.4103 21.7569L34.051 26.107C34.4642 26.2494 34.887 26.3169 35.3032 26.3169C36.5655 26.3168 37.7649 25.6957 38.4366 24.6589L39.8872 25.1587C40.051 25.2151 40.2209 25.2432 40.3902 25.2432C40.6016 25.2432 40.8123 25.1994 41.0096 25.1123C41.3649 24.9555 41.6344 24.677 41.7685 24.3284L43.7786 19.1006C44.023 18.4647 43.744 17.7679 43.1517 17.4332L45.5059 16.3941C46.8485 15.8015 47.0174 15.031 46.9987 14.6244ZM2.9375 34.9145C2.9375 35.2978 2.60805 35.6097 2.20313 35.6097H1.46875V25.8774H2.20313C2.60805 25.8774 2.9375 26.1892 2.9375 26.5725V34.9145ZM14.6138 29.1475C14.0872 30.5179 12.6981 31.4387 11.1573 31.4387H4.40626V30.0484H11.1573C12.0828 30.0484 12.9171 29.4954 13.2336 28.6725L15.3418 23.1899C15.5836 23.3274 15.8428 23.4455 16.118 23.5403C16.3133 23.6077 16.5104 23.6609 16.7079 23.7013L14.6138 29.1475ZM17.7264 22.4031C17.7094 22.403 17.6925 22.403 17.6756 22.404C17.3259 22.4084 16.969 22.354 16.6203 22.2338C16.2121 22.0932 15.8561 21.8767 15.5645 21.6071C15.5377 21.5763 15.5081 21.5478 15.4757 21.5216C14.9288 20.9702 14.6359 20.2216 14.6914 19.4446L19.9934 21.2692C19.4569 21.9666 18.6172 22.3771 17.7264 22.4031ZM42.3986 18.6251L40.3898 23.8523L39.0086 23.3764L40.9139 18.421L41.304 18.2489L42.3986 18.6251ZM44.8853 15.134L40.9595 16.8669L40.9583 16.8674L40.0181 17.2824L40.0171 17.2829L38.9148 17.7694C37.6212 18.3404 35.395 18.4323 34.0534 17.9701L5.90998 8.28641C5.52893 8.15546 6.48748 8.81656 6.34896 9.17735C6.21044 9.53823 5.02653 9.46168 5.40776 9.59289L33.5514 19.2768C34.2906 19.5315 35.2017 19.6555 36.1314 19.6555C37.1479 19.6555 38.1857 19.5065 39.0447 19.2179L37.3775 23.554C36.962 24.6347 35.6952 25.1938 34.5534 24.8004L2.95917 13.9278C1.81758 13.5345 1.22696 12.3354 1.64243 11.2548L2.89895 7.9868C3.318 8.59663 3.94121 9.08768 4.71745 9.35514L5.40776 9.59289C5.78854 9.72427 6.21025 9.53814 6.34896 9.17735C6.48766 8.81665 6.29113 8.41771 5.90998 8.28641L5.21976 8.04867C4.07836 7.65538 3.48764 6.45657 3.90284 5.37602L4.15418 4.72231L4.90765 2.76264C5.32322 1.682 6.58992 1.12266 7.7317 1.51621L44.8464 14.2911C45.3179 14.4535 45.4923 14.6228 45.5277 14.6851C45.4982 14.7503 45.3401 14.9332 44.8853 15.134Z" fill="#FFFDFB"/>
<path d="M40.9595 16.8669L44.8853 15.134C45.3401 14.9332 45.4982 14.7503 45.5277 14.6851C45.4923 14.6228 45.3179 14.4535 44.8464 14.2911L7.7317 1.51621C6.58992 1.12266 5.32322 1.682 4.90765 2.76264L4.15418 4.72231L3.90284 5.37602C3.48764 6.45657 4.07836 7.65538 5.21976 8.04867L5.90998 8.28641L34.0534 17.9701C35.395 18.4323 37.6212 18.3404 38.9148 17.7694L40.0171 17.2829L40.0181 17.2824L40.9583 16.8674L40.9595 16.8669Z" fill="#FFFDFB"/>
</svg>
